HIERARCHY
ROOT Hips
{
    OFFSET 0.000000 0.000000 0.000000
    CHANNELS 6 Xposition Yposition Zposition Zrotation Xrotation Yrotation
    JOINT Spine
    {
        OFFSET -0.000000 0.081317 0.000000
        CHANNELS 3 Zrotation Xrotation Yrotation
        JOINT Spine1
        {
            OFFSET -0.000000 0.225200 0.000000
            CHANNELS 3 Zrotation Xrotation Yrotation
            JOINT Neck
            {
                OFFSET -0.000000 0.224275 0.020389
                CHANNELS 3 Zrotation Xrotation Yrotation
                JOINT Head
                {
                    OFFSET -0.000000 0.138833 -0.019833
                    CHANNELS 3 Zrotation Xrotation Yrotation
                    End Site
                    {
                        OFFSET -0.000000 0.198333 0.000000
                    }
                }
            }
            JOINT LeftShoulder
            {
                OFFSET 0.039732 0.208237 -0.000812
                CHANNELS 3 Zrotation Xrotation Yrotation
                JOINT LeftArm
                {
                    OFFSET 0.110955 0.000000 0.000000
                    CHANNELS 3 Zrotation Xrotation Yrotation
                    JOINT LeftForeArm
                    {
                        OFFSET 0.324523 0.000000 0.000000
                        CHANNELS 3 Zrotation Xrotation Yrotation
                        JOINT LeftHand
                        {
                            OFFSET 0.302601 0.000000 0.000000
                            CHANNELS 3 Zrotation Xrotation Yrotation
                            End Site
                            {
                                OFFSET 0.148750 0.000000 0.000000
                            }
                        }
                    }
                }
            }
            JOINT RightShoulder
            {
                OFFSET -0.039598 0.208237 -0.000812
                CHANNELS 3 Zrotation Xrotation Yrotation
                JOINT RightArm
                {
                    OFFSET -0.110955 0.000000 0.000000
                    CHANNELS 3 Zrotation Xrotation Yrotation
                    JOINT RightForeArm
                    {
                        OFFSET -0.324523 0.000000 0.000000
                        CHANNELS 3 Zrotation Xrotation Yrotation
                        JOINT RightHand
                        {
                            OFFSET -0.302601 0.000000 0.000000
                            CHANNELS 3 Zrotation Xrotation Yrotation
                            End Site
                            {
                                OFFSET -0.148750 0.000000 0.000000
                            }
                        }
                    }
                }
            }
        }
    }
    JOINT LeftUpLeg
    {
        OFFSET 0.099167 0.000000 0.000000
        CHANNELS 3 Zrotation Xrotation Yrotation
        JOINT LeftLeg
        {
            OFFSET -0.000000 -0.380753 0.000000
            CHANNELS 3 Zrotation Xrotation Yrotation
            JOINT LeftFoot
            {
                OFFSET -0.000000 -0.440093 0.000000
                CHANNELS 3 Zrotation Xrotation Yrotation
                JOINT LeftToeBase
                {
                    OFFSET -0.000000 -0.064458 0.148750
                    CHANNELS 3 Zrotation Xrotation Yrotation
                    End Site
                    {
                        OFFSET -0.000000 0.000000 0.039667
                    }
                }
            }
        }
    }
    JOINT RightUpLeg
    {
        OFFSET -0.099167 0.000000 0.000000
        CHANNELS 3 Zrotation Xrotation Yrotation
        JOINT RightLeg
        {
            OFFSET -0.000000 -0.380753 0.000000
            CHANNELS 3 Zrotation Xrotation Yrotation
            JOINT RightFoot
            {
                OFFSET -0.000000 -0.440093 0.000000
                CHANNELS 3 Zrotation Xrotation Yrotation
                JOINT RightToeBase
                {
                    OFFSET -0.000000 -0.064458 0.148750
                    CHANNELS 3 Zrotation Xrotation Yrotation
                    End Site
                    {
                        OFFSET -0.000000 0.000000 0.039667
                    }
                }
            }
        }
    }
}
MOTION
Frames:    9
Frame Time:    0.010000
-0.443655    0.927870    -0.138787    -4.997122    5.337832    22.401005    2.586034    -27.275831    0.740685    3.936232    37.342308    -1.284213    2.694204    20.986877    -1.924466    -7.002455    -16.149855    -3.835512    -14.364438    3.283480    -9.814657    -59.824623    -2.200470    -19.705212    -2.487949    30.479437    -20.975473    15.568125    27.874950    -18.294773    11.357443    -0.183324    11.839834    50.077824    64.858543    5.625845    -27.787825    -16.241129    34.316334    13.453998    -8.422283    -6.423935    5.106403    -3.920746    23.587238    1.151071    0.825595    45.208294    16.715645    19.928148    -62.419022    0.000000    0.000000    0.000000    -0.164626    -0.799505    -7.763830    1.288422    1.419562    6.700641    0.840574    20.562651    -15.147429    0.000000    0.000000    0.000000    
-0.443588    0.927877    -0.138709    -4.999497    5.354363    22.401218    2.587261    -27.254747    0.736071    3.939878    37.318874    -1.286306    2.703393    21.004677    -1.939729    -7.006277    -16.208405    -3.854958    -14.350003    3.300673    -9.829702    -59.821350    -2.206679    -19.712700    -2.615571    30.369207    -20.918766    15.954133    27.670910    -18.413614    11.354508    -0.186607    11.851373    50.077198    64.846054    5.615131    -27.795792    -16.221102    34.349274    13.469842    -8.391661    -6.429174    5.145704    -4.026715    23.508297    1.125139    1.015814    45.687862    16.854692    19.660749    -62.822086    0.000000    0.000000    0.000000    -0.168903    -0.957760    -7.933050    1.319721    1.812019    6.517568    0.539610    20.205036    -14.936072    0.000000    0.000000    0.000000    
-0.443533    0.927879    -0.138661    -5.008961    5.379190    22.397142    2.590067    -27.239096    0.733452    3.956475    37.287514    -1.291620    2.709268    21.017885    -1.955799    -7.017159    -16.251160    -3.876616    -14.349416    3.308123    -9.840987    -59.817371    -2.198964    -19.710850    -2.611314    30.358625    -20.917246    15.884425    27.674500    -18.385895    11.329736    -0.170498    11.859177    50.047390    64.848549    5.650302    -27.803795    -16.236639    34.376652    13.440722    -8.395787    -6.427219    5.108584    -4.030915    23.519304    1.153391    0.967601    45.519062    16.796173    19.710403    -62.607727    0.000000    0.000000    0.000000    -0.175240    -1.001270    -7.934737    1.322901    1.849268    6.516023    0.523039    20.196218    -14.928422    0.000000    0.000000    0.000000    
-0.443462    0.927902    -0.138559    -5.008640    5.385530    22.395649    2.599331    -27.203436    0.728380    3.951137    37.256348    -1.290433    2.709444    21.034208    -1.963887    -7.018100    -16.307587    -3.888168    -14.336617    3.314252    -9.839188    -59.818352    -2.186511    -19.702932    -2.563363    30.396122    -20.963316    15.143399    27.875530    -17.991791    11.330933    -0.160597    11.859401    50.011215    64.864014    5.673476    -27.824314    -16.245399    34.410435    13.463537    -8.389675    -6.422034    5.103201    -4.030584    23.539059    1.157996    0.973906    45.428745    16.756077    19.734514    -62.524105    0.000000    0.000000    0.000000    -0.181975    -1.017267    -7.948402    1.321058    1.880550    6.524632    0.512953    20.195871    -14.920225    0.000000    0.000000    0.000000    
-0.443393    0.927892    -0.138474    -5.012630    5.402494    22.395031    2.603724    -27.180214    0.721447    3.954574    37.228081    -1.293133    2.711116    21.065630    -1.979611    -7.011217    -16.386839    -3.906314    -14.331529    3.335075    -9.836442    -59.826721    -2.212455    -19.730902    -2.610653    30.364876    -20.903364    15.742985    27.703751    -18.371899    11.326966    -0.147517    11.869404    49.965897    64.867264    5.705256    -27.847395    -16.237791    34.440777    13.484995    -8.366222    -6.413073    5.099793    -4.045776    23.547918    1.159283    0.977422    45.488918    16.790527    19.720844    -62.597626    0.000000    0.000000    0.000000    -0.188009    -1.048567    -7.955659    1.317930    1.917341    6.496363    0.513743    20.173908    -14.886117    0.000000    0.000000    0.000000    
-0.443330    0.927891    -0.138427    -5.022691    5.426021    22.389999    2.615910    -27.160639    0.726340    3.960344    37.202934    -1.293596    2.723932    21.089703    -1.993002    -7.028759    -16.466473    -3.928665    -14.331445    3.329874    -9.842405    -59.819305    -2.200470    -19.722656    -2.590427    30.390205    -20.935020    15.095242    27.870899    -18.005125    11.325818    -0.141143    11.868450    49.921928    64.865715    5.734202    -27.865364    -16.251207    34.484291    13.494408    -8.361850    -6.403861    5.118509    -4.068680    23.563608    1.171937    0.987579    45.462379    16.739159    19.866331    -62.665039    0.000000    0.000000    0.000000    -0.197311    -1.089460    -7.933113    1.328331    1.947733    6.471020    0.515453    20.172604    -14.892803    0.000000    0.000000    0.000000    
-0.443261    0.927891    -0.138366    -5.025100    5.448994    22.390572    2.619135    -27.150452    0.712371    3.984590    37.186138    -1.306876    2.132702    21.057135    -1.961491    -6.150942    -16.435501    -3.674312    -14.353651    3.326882    -9.840137    -59.793926    -2.172245    -19.714502    -2.590243    30.373571    -20.948540    15.044242    27.863575    -17.982639    11.272792    -0.126403    11.905540    49.930614    64.807617    5.760304    -27.882757    -16.224903    34.515190    13.469585    -8.317341    -6.387246    5.108776    -4.100222    23.553286    1.202526    0.968555    45.631683    16.893524    19.836782    -62.977837    0.000000    0.000000    0.000000    -0.205480    -1.125928    -7.945118    1.319503    1.983129    6.468407    0.477265    20.159885    -14.848455    0.000000    0.000000    0.000000    
-0.443187    0.927882    -0.138293    -5.025039    5.463075    22.390320    2.628868    -27.114752    0.708119    3.980300    37.162231    -1.306034    2.132766    21.204466    -2.032780    -6.053465    -16.734728    -3.733010    -14.358080    3.313697    -9.824461    -59.782478    -2.140355    -19.715900    -2.599231    30.356480    -20.949133    15.109059    27.829353    -18.032452    11.271385    -0.134981    11.903037    49.898888    64.803314    5.786602    -27.900072    -16.220091    34.559273    13.447087    -8.290792    -6.364257    5.084191    -4.101722    23.568804    1.161598    1.004939    45.390099    16.740421    19.701971    -62.508163    0.000000    0.000000    0.000000    -0.217379    -1.154121    -7.945749    1.320463    2.022021    6.455174    0.508921    20.131502    -14.864686    0.000000    0.000000    0.000000    
-0.443118    0.927867    -0.138209    -5.020981    5.484042    22.385172    2.623435    -27.097383    0.701747    3.992987    37.149242    -1.310783    2.099864    21.228962    -2.037925    -6.016644    -16.811905    -3.732862    -14.368021    3.314138    -9.821494    -59.770508    -2.152289    -19.724022    -2.629120    30.356768    -20.936275    15.106867    27.824654    -18.038048    11.254776    -0.129079    11.921140    49.865837    64.813225    5.816376    -27.936359    -16.236937    34.590225    13.455400    -8.287540    -6.357611    5.056736    -4.112370    23.600225    1.236265    0.946169    45.336681    16.766388    19.925762    -62.661831    0.000000    0.000000    0.000000    -0.232109    -1.182722    -7.940854    1.315652    2.050213    6.439968    0.493472    20.121696    -14.829535    0.000000    0.000000    0.000000    
